<svg width="158" height="139" viewBox="0 0 158 139" fill="none" xmlns="http://www.w3.org/2000/svg">
<path d="M157.012 38.8941C156.473 38.1405 155.762 37.5254 154.937 37.0995C154.112 36.6737 153.198 36.4493 152.268 36.4451H36.8372L31.5664 4.89863C31.3419 3.51884 30.6271 2.26525 29.5521 1.36621C28.4772 0.467164 27.1137 -0.0175055 25.7099 0.000483338H5.85648C4.30324 0.000483338 2.81362 0.614834 1.71532 1.70838C0.61702 2.80193 0 4.2851 0 5.83161C0 7.37813 0.61702 8.8613 1.71532 9.95485C2.81362 11.0484 4.30324 11.6627 5.85648 11.6627H20.8491L26.7055 46.6495C26.8153 47.1566 26.9926 47.6469 27.2326 48.1073L33.0891 102.687C33.2483 104.12 33.935 105.443 35.0165 106.401C36.098 107.36 37.4978 107.885 38.9456 107.876H47.5546C44.5508 109.951 42.2909 112.927 41.1044 116.37C39.9178 119.812 39.8667 123.543 40.9583 127.017C42.0499 130.49 44.2273 133.526 47.1731 135.682C50.1189 137.838 53.6791 139 57.3349 139C60.9907 139 64.5509 137.838 67.4967 135.682C70.4425 133.526 72.6199 130.49 73.7115 127.017C74.8031 123.543 74.752 119.812 73.5654 116.37C72.3789 112.927 70.119 109.951 67.1152 107.876H103.835C100.831 109.951 98.5716 112.927 97.3851 116.37C96.1986 119.812 96.1474 123.543 97.239 127.017C98.3307 130.49 100.508 133.526 103.454 135.682C106.4 137.838 109.96 139 113.616 139C117.271 139 120.832 137.838 123.777 135.682C126.723 133.526 128.901 130.49 129.992 127.017C131.084 123.543 131.033 119.812 129.846 116.37C128.66 112.927 126.4 109.951 123.396 107.876H132.064C133.291 107.88 134.489 107.498 135.487 106.787C136.486 106.075 137.234 105.069 137.627 103.911L157.598 44.2588C157.941 43.3837 158.068 42.439 157.966 41.5049C157.864 40.5709 157.537 39.6752 157.012 38.8941ZM57.452 127.294C56.3748 127.294 55.3218 126.976 54.4261 126.38C53.5304 125.784 52.8323 124.937 52.4201 123.946C52.0079 122.955 51.9 121.865 52.1102 120.813C52.3203 119.761 52.839 118.795 53.6008 118.037C54.3625 117.278 55.3329 116.762 56.3895 116.552C57.446 116.343 58.5411 116.451 59.5363 116.861C60.5315 117.271 61.3822 117.966 61.9806 118.858C62.5791 119.75 62.8985 120.799 62.8985 121.871C62.8842 123.285 62.3216 124.639 61.3285 125.649C60.3354 126.66 58.9885 127.249 57.5692 127.294H57.452ZM113.733 127.294C112.656 127.294 111.603 126.976 110.707 126.38C109.811 125.784 109.113 124.937 108.701 123.946C108.289 122.955 108.181 121.865 108.391 120.813C108.601 119.761 109.12 118.795 109.881 118.037C110.643 117.278 111.614 116.762 112.67 116.552C113.727 116.343 114.822 116.451 115.817 116.861C116.812 117.271 117.663 117.966 118.261 118.858C118.86 119.75 119.179 120.799 119.179 121.871C119.165 123.285 118.602 124.639 117.609 125.649C116.616 126.66 115.269 127.249 113.85 127.294H113.733ZM127.964 96.1558H44.3335L39.0041 48.1656H144.128L127.964 96.1558Z" fill="black"/>
</svg>
