<svg width="133" height="158" viewBox="0 0 133 158" fill="none" xmlns="http://www.w3.org/2000/svg">
<path d="M127.273 13.4864H113.435V5.64286C113.435 4.14628 112.835 2.711 111.767 1.65275C110.699 0.594513 109.251 0 107.741 0H25.2268C23.7165 0 22.2681 0.594513 21.2002 1.65275C20.1322 2.711 19.5323 4.14628 19.5323 5.64286V13.7686H11.3891V6.88428C11.3891 5.38771 10.7891 3.95242 9.72118 2.89418C8.65325 1.83594 7.20482 1.24143 5.69454 1.24143C4.18425 1.24143 2.73582 1.83594 1.66789 2.89418C0.599958 3.95242 0 5.38771 0 6.88428V34.4214C0 35.918 0.599958 37.3533 1.66789 38.4115C2.73582 39.4698 4.18425 40.0643 5.69454 40.0643C7.20482 40.0643 8.65325 39.4698 9.72118 38.4115C10.7891 37.3533 11.3891 35.918 11.3891 34.4214V25.0543H19.5323V33.1236C19.5323 34.6202 20.1322 36.0554 21.2002 37.1137C22.2681 38.1719 23.7165 38.7664 25.2268 38.7664H107.741C109.251 38.7664 110.699 38.1719 111.767 37.1137C112.835 36.0554 113.435 34.6202 113.435 33.1236V24.7721H121.578V38.0893L72.3206 50.5036C71.0677 50.8235 69.9621 51.5566 69.1858 52.5823C68.4095 53.6079 68.0088 54.865 68.0497 56.1464V78.21H59.9065C58.3962 78.21 56.9478 78.8045 55.8799 79.8628C54.812 80.921 54.212 82.3563 54.212 83.8529V152.357C54.212 153.854 54.812 155.289 55.8799 156.347C56.9478 157.405 58.3962 158 59.9065 158H87.6389C89.1492 158 90.5976 157.405 91.6656 156.347C92.7335 155.289 93.3335 153.854 93.3335 152.357V83.6836C93.3335 82.187 92.7335 80.7517 91.6656 79.6935C90.5976 78.6352 89.1492 78.0407 87.6389 78.0407H79.4388V60.3786L128.697 47.9643C129.949 47.6444 131.055 46.9113 131.831 45.8856C132.608 44.8599 133.008 43.6029 132.967 42.3214V19.1293C132.967 17.6327 132.367 16.1974 131.3 15.1392C130.232 14.0809 128.783 13.4864 127.273 13.4864ZM30.9213 27.4807V11.2857H102.046V19.0729V27.4807H30.9213ZM82.1722 146.714H65.6011V89.3264H81.9444L82.1722 146.714Z" fill="black"/>
</svg>
