<svg width="24" height="24" viewBox="0 0 24 24" fill="none" xmlns="http://www.w3.org/2000/svg">
<path d="M12 2.16225C15.2041 2.16225 15.5836 2.17444 16.8489 2.23209C18.0189 2.28553 18.6544 2.481 19.0773 2.64534C19.6373 2.86303 20.0371 3.12309 20.457 3.543C20.877 3.96291 21.137 4.36266 21.3547 4.92272C21.519 5.34562 21.7145 5.98106 21.7679 7.15097C21.8256 8.41641 21.8377 8.79591 21.8377 12C21.8377 15.2042 21.8256 15.5837 21.7679 16.849C21.7145 18.019 21.519 18.6544 21.3547 19.0773C21.137 19.6373 20.8769 20.0372 20.457 20.4571C20.0371 20.877 19.6373 21.1371 19.0773 21.3547C18.6544 21.519 18.0189 21.7146 16.8489 21.7679C15.5838 21.8257 15.2043 21.8378 12 21.8378C8.79562 21.8378 8.41613 21.8257 7.15097 21.7679C5.98097 21.7145 5.34562 21.519 4.92272 21.3547C4.36266 21.1371 3.96281 20.877 3.54291 20.4571C3.123 20.0371 2.86294 19.6373 2.64534 19.0773C2.481 18.6545 2.28544 18.019 2.23209 16.849C2.17434 15.5837 2.16216 15.2042 2.16216 12C2.16216 8.79591 2.17434 8.41641 2.23209 7.15106C2.28553 5.98106 2.481 5.34562 2.64534 4.92272C2.86294 4.36266 3.123 3.96291 3.54291 3.543C3.96291 3.123 4.36266 2.86303 4.92272 2.64534C5.34553 2.481 5.98097 2.28553 7.15097 2.23209C8.41631 2.17444 8.79581 2.16225 12 2.16225ZM12 0C8.74097 0 8.33231 0.0137812 7.05244 0.0721875C5.77509 0.1305 4.90275 0.333375 4.13953 0.63C3.35034 0.936656 2.68116 1.347 2.01403 2.01412C1.34691 2.68125 0.936656 3.35044 0.63 4.13953C0.333281 4.90284 0.1305 5.77519 0.0721875 7.05244C0.0137812 8.33231 0 8.74097 0 12C0 15.259 0.0137812 15.6677 0.0721875 16.9476C0.1305 18.2249 0.333281 19.0972 0.63 19.8605C0.936562 20.6496 1.34691 21.3188 2.01403 21.986C2.68116 22.6531 3.35034 23.0633 4.13953 23.37C4.90284 23.6667 5.77509 23.8695 7.05234 23.9278C8.33231 23.9862 8.74097 24 12 24C15.259 24 15.6677 23.9862 16.9476 23.9278C18.2248 23.8695 19.0972 23.6667 19.8604 23.37C20.6496 23.0634 21.3188 22.6531 21.9859 21.986C22.653 21.3188 23.0633 20.6497 23.37 19.8605C23.6666 19.0972 23.8695 18.2249 23.9278 16.9477C23.9862 15.6677 24 15.259 24 12C24 8.74097 23.9862 8.33231 23.9278 7.05244C23.8695 5.77519 23.6666 4.90284 23.37 4.13962C23.0633 3.35044 22.653 2.68125 21.9859 2.01412C21.3188 1.347 20.6496 0.936562 19.8605 0.63C19.0972 0.333375 18.2248 0.1305 16.9476 0.0721875C15.6677 0.0137812 15.259 0 12 0ZM12 5.83781C8.59669 5.83781 5.83781 8.59688 5.83781 12C5.83781 15.4033 8.59669 18.1622 12 18.1622C15.4032 18.1622 18.1622 15.4033 18.1622 12C18.1622 8.59678 15.4032 5.83781 12 5.83781ZM12 16C9.79088 16 7.99997 14.2091 7.99997 12C7.99997 9.79088 9.79088 7.99997 12 7.99997C14.2091 7.99997 16 9.79088 16 12C16 14.2091 14.2091 16 12 16ZM19.8456 5.59434C19.8456 6.38972 19.2009 7.03434 18.4056 7.03434C17.6103 7.03434 16.9656 6.38972 16.9656 5.59434C16.9656 4.79906 17.6103 4.15434 18.4056 4.15434C19.2009 4.15434 19.8456 4.79906 19.8456 5.59434Z" fill="white"/>
</svg>
