<svg width="79" height="158" viewBox="0 0 79 158" fill="none" xmlns="http://www.w3.org/2000/svg">
<path d="M77.6227 81.919L47.1393 5.4165C46.4857 3.81397 45.3751 2.44357 43.9486 1.47921C42.5221 0.514849 40.8439 0 39.127 0C37.4101 0 35.7319 0.514849 34.3053 1.47921C32.8788 2.44357 31.7683 3.81397 31.1146 5.4165L0.631228 81.919C0.099221 83.2433 -0.101159 84.6796 0.0478216 86.1007C0.196802 87.5218 0.69055 88.8839 1.48536 90.0664C2.28018 91.249 3.35155 92.2156 4.60465 92.8806C5.85776 93.5456 7.25395 93.8886 8.66966 93.8791H33.9333V105.787H30.2795C28.8951 105.787 27.5674 106.342 26.5885 107.33C25.6096 108.318 25.0597 109.658 25.0597 111.055V152.731C25.0597 154.129 25.6096 155.469 26.5885 156.457C27.5674 157.445 28.8951 158 30.2795 158H48.0789C49.4632 158 50.7909 157.445 51.7698 156.457C52.7487 155.469 53.2986 154.129 53.2986 152.731V111.108C53.2986 109.711 52.7487 108.37 51.7698 107.382C50.7909 106.394 49.4632 105.839 48.0789 105.839H44.425V93.9318H69.6887C71.1021 93.9275 72.4928 93.5721 73.738 92.897C74.9832 92.2218 76.0447 91.2477 76.8288 90.0606C77.6128 88.8735 78.0953 87.5098 78.2338 86.09C78.3723 84.6701 78.1624 83.2376 77.6227 81.919ZM42.8069 147.462H35.447V116.377H42.8069V147.462ZM44.3728 83.3943V81.3921C44.3728 79.9948 43.8229 78.6546 42.844 77.6665C41.8651 76.6785 40.5374 76.1234 39.1531 76.1234C37.7687 76.1234 36.441 76.6785 35.4621 77.6665C34.4832 78.6546 33.9333 79.9948 33.9333 81.3921V83.3943H11.2795L39.1531 13.425L67.1832 83.3943H44.3728Z" fill="black"/>
</svg>
