<svg width="124" height="158" viewBox="0 0 124 158" fill="none" xmlns="http://www.w3.org/2000/svg">
<path d="M120.033 9.48755L91.8696 0.0681666C91.2911 -0.0227222 90.702 -0.0227222 90.1235 0.0681666H5.63272C4.13883 0.0681666 2.70612 0.662416 1.64979 1.72019C0.593446 2.77796 0 4.2126 0 5.70852V33.2334C0 34.7293 0.593446 36.164 1.64979 37.2218C2.70612 38.2795 4.13883 38.8738 5.63272 38.8738H42.2454V152.358C42.2454 153.854 42.8388 155.288 43.8952 156.346C44.9515 157.404 46.3842 157.998 47.8781 157.998H76.0417C77.5356 157.998 78.9683 157.404 80.0246 156.346C81.0809 155.288 81.6744 153.854 81.6744 152.358V38.8738H118.287C119.781 38.8738 121.214 38.2795 122.27 37.2218C123.326 36.164 123.92 34.7293 123.92 33.2334V14.9023C123.931 13.7033 123.56 12.5319 122.861 11.5582C122.162 10.5845 121.172 9.85922 120.033 9.48755ZM53.5671 146.717V57.2049H70.4653V146.717H53.5671ZM70.4653 45.9242H53.5671V38.8738H70.4653V45.9242ZM112.711 27.5931H11.3218V11.3489H89.4475L112.88 18.9633L112.711 27.5931Z" fill="black"/>
</svg>
