<svg width="159" height="158" viewBox="0 0 159 158" fill="none" xmlns="http://www.w3.org/2000/svg">
<path d="M89.6426 107.217C86.2829 105.772 82.6638 105.026 79.0064 105.026C75.349 105.026 71.7299 105.772 68.3702 107.217C67.0084 107.838 65.949 108.975 65.4252 110.377C64.9014 111.779 64.9561 113.332 65.5771 114.693C66.1982 116.055 67.3347 117.115 68.7368 117.638C70.1389 118.162 71.6917 118.108 73.0535 117.486C76.8514 115.937 81.105 115.937 84.9029 117.486C85.5772 117.798 86.3062 117.973 87.0482 118.003C87.7903 118.032 88.5309 117.915 89.2278 117.658C89.9247 117.402 90.5641 117.01 91.1097 116.506C91.6553 116.002 92.0963 115.396 92.4075 114.722C92.7187 114.047 92.894 113.318 92.9235 112.576C92.953 111.834 92.836 111.094 92.5793 110.397C92.3226 109.7 91.9311 109.06 91.4272 108.515C90.9233 107.969 90.3169 107.528 89.6426 107.217Z" fill="black"/>
<path d="M97.8809 95.2547C91.9003 92.6855 85.4593 91.3606 78.9501 91.3606C72.441 91.3606 66 92.6855 60.0193 95.2547C58.6575 95.8758 57.5982 97.0124 57.0744 98.4145C56.5506 99.8166 56.6052 101.369 57.2263 102.731C57.8473 104.093 58.9839 105.152 60.386 105.676C61.7881 106.2 63.3409 106.145 64.7027 105.524C73.7394 101.806 83.8788 101.806 92.9155 105.524C93.5898 105.832 94.3181 106.003 95.0587 106.029C95.7994 106.056 96.5379 105.935 97.2321 105.676C97.9264 105.417 98.5628 105.023 99.1049 104.518C99.647 104.013 100.084 103.405 100.392 102.731C100.699 102.057 100.871 101.329 100.897 100.588C100.923 99.8473 100.803 99.1087 100.544 98.4145C100.284 97.7202 99.8908 97.0839 99.3855 96.5417C98.8802 95.9996 98.2731 95.5622 97.5988 95.2547H97.8809Z" fill="black"/>
<path d="M106.176 83.2361C97.5743 79.543 88.3113 77.6385 78.9505 77.6385C69.5897 77.6385 60.3267 79.543 51.7252 83.2361C50.3633 83.8571 49.304 84.9937 48.7802 86.3958C48.5209 87.09 48.4008 87.8286 48.4268 88.5692C48.4529 89.3099 48.6246 90.0382 48.9321 90.7125C49.2396 91.3868 49.6769 91.9939 50.2191 92.4992C50.7612 93.0045 51.3976 93.398 52.0918 93.6574C53.4939 94.1812 55.0467 94.1266 56.4085 93.5055C63.5476 90.4761 71.2235 88.9149 78.9787 88.9149C86.734 88.9149 94.4099 90.4761 101.549 93.5055C102.911 94.1266 104.464 94.1812 105.866 93.6574C107.268 93.1336 108.404 92.0743 109.025 90.7125C109.646 89.3506 109.701 87.7979 109.177 86.3958C108.653 84.9937 107.594 83.8571 106.232 83.2361H106.176Z" fill="black"/>
<path d="M43.4871 71.2737C42.8128 71.5812 42.2057 72.0185 41.7004 72.5607C41.1951 73.1028 40.8015 73.7392 40.5422 74.4334C40.0184 75.8355 40.073 77.3883 40.6941 78.7501C41.3151 80.1119 42.4517 81.1712 43.8538 81.695C45.2559 82.2188 46.8086 82.1642 48.1704 81.5432C57.9171 77.4151 68.394 75.2878 78.9788 75.2878C89.5636 75.2878 100.041 77.4151 109.787 81.5432C111.149 82.1642 112.702 82.2188 114.104 81.695C115.506 81.1712 116.643 80.1119 117.264 78.7501C117.885 77.3883 117.939 75.8355 117.415 74.4334C116.892 73.0313 115.832 71.8947 114.471 71.2737C103.24 66.528 91.1712 64.0829 78.9788 64.0829C66.7865 64.0829 54.718 66.528 43.4871 71.2737Z" fill="black"/>
<path d="M78.9786 129.787C82.1572 129.787 84.734 127.589 84.734 124.878C84.734 122.167 82.1572 119.969 78.9786 119.969C75.7999 119.969 73.2231 122.167 73.2231 124.878C73.2231 127.589 75.7999 129.787 78.9786 129.787Z" fill="black"/>
<path d="M155.83 58.5781L82.4767 1.19325C81.4853 0.419969 80.2639 0 79.0066 0C77.7492 0 76.5279 0.419969 75.5364 1.19325L2.1831 58.5781C1.25497 59.2984 0.57482 60.2904 0.237533 61.4158C-0.0997538 62.5412 -0.0773512 63.7438 0.301613 64.8558C0.680578 65.9679 1.3972 66.9339 2.35152 67.6191C3.30583 68.3044 4.45023 68.6746 5.62507 68.6783H22.5527V152.357C22.5527 153.854 23.1472 155.289 24.2054 156.347C25.2636 157.406 26.6988 158 28.1953 158H129.761C131.258 158 132.693 157.406 133.751 156.347C134.809 155.289 135.404 153.854 135.404 152.357V68.6783H152.332C153.511 68.6864 154.664 68.3247 155.627 67.6438C156.591 66.963 157.316 65.9973 157.702 64.8826C158.089 63.7679 158.116 62.5602 157.78 61.4293C157.444 60.2985 156.762 59.3013 155.83 58.5781ZM129.761 57.3932C128.265 57.3932 126.83 57.9876 125.771 59.0458C124.713 60.104 124.119 61.5392 124.119 63.0357V146.715H33.8379V63.0357C33.8379 61.5392 33.2434 60.104 32.1852 59.0458C31.127 57.9876 29.6918 57.3932 28.1953 57.3932H21.9885L78.9784 12.8169L135.968 57.3932H129.761Z" fill="black"/>
</svg>
