<svg width="160" height="158" viewBox="0 0 160 158" fill="none" xmlns="http://www.w3.org/2000/svg">
<path d="M110.705 78.9162L158.354 32.0833C159.408 31.0362 160 29.6197 160 28.1433C160 26.6668 159.408 25.2504 158.354 24.2033L135.718 1.84869C134.658 0.807794 133.224 0.223547 131.729 0.223547C130.234 0.223547 128.799 0.807794 127.739 1.84869L110.762 18.6146L79.8637 48.5139L32.4411 1.62514C31.3808 0.584247 29.9465 0 28.4515 0C26.9565 0 25.5222 0.584247 24.4619 1.62514L1.82579 23.9797C0.771792 25.0268 0.180187 26.4433 0.180187 27.9197C0.180187 29.3962 0.771792 30.8126 1.82579 31.8597L49.2484 78.6926L12.9741 114.46C12.3567 115.073 11.8918 115.819 11.6159 116.64L0.297854 150.507C0.0128053 151.34 -0.0691922 152.227 0.0585243 153.098C0.186241 153.968 0.520068 154.796 1.03287 155.515C1.54568 156.234 2.22299 156.823 3.00975 157.234C3.79651 157.646 4.67052 157.869 5.56075 157.884C6.17574 157.888 6.78739 157.794 7.37163 157.604L41.6653 146.427C42.4961 146.155 43.2516 145.695 43.8723 145.086L79.8637 109.542L127.286 156.375C128.347 157.416 129.781 158 131.276 158C132.771 158 134.205 157.416 135.266 156.375L157.902 134.02C158.956 132.973 159.547 131.557 159.547 130.08C159.547 128.604 158.956 127.187 157.902 126.14L110.705 78.9162ZM39.8544 133.07L24.9712 118.428L114.101 30.4067L128.927 45.049L39.8544 133.07ZM131.248 13.4731L146.074 28.1153L136.963 37.3366L122.137 22.5267L131.248 13.4731ZM28.1968 13.4731L71.6016 56.338L64.4146 63.715L58.7556 58.1264L51.2857 65.2799L47.8337 61.8708L55.247 54.5497L47.2678 46.6697L39.8544 54.1026L36.4024 50.6935L43.8158 43.3724L35.8365 35.4924L28.1968 42.9253L24.7448 39.5162L32.4411 32.0833L24.4053 24.2033L16.8788 31.748L13.4268 28.3389L28.1968 13.4731ZM19.4819 128.767L29.3852 138.547L14.502 143.521L19.4819 128.767ZM131.304 144.359L127.852 140.95L135.266 133.629L127.23 125.749L119.816 133.07L116.364 129.661L123.778 122.34L115.855 114.46L108.442 121.781L105.046 118.428L112.46 111.107L104.48 103.227L96.954 110.548L93.502 107.139L100.915 99.8177L95.2563 94.2291L102.67 86.9079L146.074 129.773L131.304 144.359Z" fill="black"/>
</svg>
